<?xml version="1.0"?><svg width="600" height="600" xmlns="http://www.w3.org/2000/svg">

 <metadata id="metadata7">image/svg+xml</metadata>
 <g>
  <title>Layer 1</title>
  <g id="layer1">
   <path fill="#ffff00" fill-rule="evenodd" stroke="#000000" stroke-width="0.999849" stroke-miterlimit="4" stroke-dashoffset="0" id="path2529" d="m167.179108,516.060364c-3.055405,-3.884277 -4.503357,-12.34137 -3.262405,-19.054352c1.234909,-6.680359 1.655243,-7.527863 14.456848,-29.15033c18.922089,-31.960114 25.661697,-49.127228 38.810318,-98.857239c0.576416,-2.180206 -2.21907,-4.904663 -5.032562,-4.904663c-3.65712,0 -6.456253,2.729462 -8.208176,8.004028c-1.976227,5.949707 -3.271286,7.166138 -8.355896,7.848114c-4.851364,0.650757 -10.630432,-1.665985 -12.936905,-5.186096c-1.631134,-2.489471 -1.625931,-3.129089 0.094955,-11.60614c1.719391,-8.469666 1.725815,-9.221344 0.114578,-13.440308c-4.788071,-12.537445 -16.608261,-14.029236 -23.389084,-2.951904c-4.560883,7.450745 -14.497177,20.243652 -20.251175,26.073242c-10.186707,10.320465 -16.845268,10.649811 -23.710373,1.172791c-2.27063,-3.134491 -3.010544,-5.264496 -3.010544,-8.666351c0,-3.919708 0.496101,-4.96637 3.788071,-7.991699c4.849892,-4.457062 11.69194,-8.260193 22.475891,-12.493103c14.682877,-5.763336 21.149445,-10.883331 24.809586,-19.643311c2.722122,-6.514893 1.456161,-14.514221 -2.644241,-16.708679c-6.024017,-3.223969 -13.114883,2.184937 -25.188675,19.213867c-11.201393,15.798492 -17.261688,19.674683 -29.772926,19.042908c-8.648911,-0.436768 -12.751419,-2.753082 -17.477203,-9.867828c-4.309608,-6.48822 -5.554756,-11.25351 -5.122185,-19.603363c0.318665,-6.151337 0.859528,-7.940491 3.598854,-11.904755c3.83326,-5.547455 10.789993,-10.219879 18.523354,-12.441193c3.156662,-0.906708 12.891899,-2.017456 22.223351,-2.535583c20.640343,-1.146027 26.993935,-2.400177 49.678093,-9.80603c11.468475,-3.744141 14.91008,-6.316071 14.91008,-11.142334c0,-2.92572 -4.170425,-7.051361 -7.908493,-7.823547c-2.745804,-0.5672 -23.531189,-2.596191 -26.61174,-2.597717c-2.805435,-0.001404 -7.782623,-4.948074 -8.84314,-8.788956c-1.527191,-5.531082 0.713806,-9.994827 5.690643,-11.334961c5.298401,-1.426697 9.219086,-0.188354 18.995758,5.999847c4.438675,2.809525 11.1642,6.052185 14.945557,7.205933c6.602432,2.014481 7.053314,2.029678 11.365875,0.38269c8.676437,-3.313538 9.721802,-9.158813 3.729752,-20.855194c-4.943848,-9.650299 -14.039261,-19.368958 -21.787186,-23.280121c-11.69635,-5.904282 -19.315887,-15.281509 -24.08197,-29.637222c-1.897354,-5.715027 -2.34198,-9.202011 -2.318375,-18.182739c0.025864,-9.849701 0.332733,-11.768402 2.701813,-16.894135c5.906998,-12.78009 17.622803,-13.135193 25.222855,-0.764481c2.436203,3.965347 3.173264,7.344803 5.944489,27.255066c3.629562,26.077148 5.018051,30.371399 13.055679,40.377396c8.321609,10.359512 15.644424,13.678696 20.177338,9.145782c2.971146,-2.971115 3.393234,-6.227997 1.590576,-12.271652c-0.891098,-2.987457 -1.881393,-8.613708 -2.200653,-12.502792c-0.502167,-6.116562 -0.157516,-8.380585 2.553009,-16.771988c5.080292,-15.727783 4.084137,-22.527603 -5.569458,-38.016113c-5.614914,-9.008789 -6.159195,-12.932655 -2.358185,-17.001076c4.731216,-5.064018 11.524582,-7.065407 13.972092,-4.116318c0.7771,0.936378 1.060471,7.582893 0.893631,20.960655c-0.27005,21.643402 -0.633255,20.006561 7.821594,35.246857c2.907639,5.241226 5.503494,16.399536 5.528946,23.766357c0.009995,2.906479 0.681412,6.026367 1.569733,7.294632c2.809616,4.011292 12.3983,5.151443 16.445084,1.955383c0.731384,-0.577606 3.321838,-4.129608 5.7565,-7.893295c2.532532,-3.914841 6.172699,-7.998444 8.506958,-9.543182c3.49707,-2.31424 4.866852,-2.634872 9.585052,-2.243622c4.586182,0.380325 6.190247,1.075699 9.611664,4.166733c3.227997,2.916336 4.936707,3.710205 7.985535,3.710205c8.077637,0 17.328583,-7.674057 17.328583,-14.374725c0,-1.630402 -1.368866,-6.083206 -3.041992,-9.895172c-4.492096,-10.23494 -4.746124,-14.142471 -1.542419,-23.727295c5.524628,-16.528427 10.473358,-21.120628 22.767151,-21.126862c10.223785,-0.005173 17.242828,4.875076 19.0242,13.22731c1.191803,5.588104 0.325531,9.737503 -4.604858,22.056625c-10.721344,26.788589 -11.384705,35.092102 -3.438202,43.038666c2.043823,2.043808 5.621704,4.286926 7.950958,4.984802c6.842194,2.049957 11.715698,-0.423386 21.013611,-10.664902c9.291748,-10.234634 14.0755,-12.691116 19.941589,-10.240128c3.095612,1.293427 3.859467,2.295288 5.205383,6.827499c0.867554,2.921402 1.577393,6.426437 1.577393,7.789017c0,10.741653 -9.873596,21.390823 -22.728455,24.513702c-2.777893,0.67485 -7.226349,2.311783 -9.885406,3.637604c-15.250885,7.604233 -8.785461,23.459991 9.594971,23.530655c8.147003,0.031357 15.197052,-2.964615 24.029022,-10.211273c16.075714,-13.190125 35.88028,-27.303558 43.776825,-31.19696c12.679871,-6.251831 29.987671,-8.648102 42.163574,-5.83757c12.562286,2.899719 17.425995,15.565338 10.953735,28.524841c-3.388245,6.784195 -4.381561,7.084915 -16.412659,4.968262c-19.296783,-3.394836 -36.134094,-1.873245 -52.935577,4.783707c-14.10495,5.588608 -29.300293,13.825699 -31.908142,17.29686c-5.372803,7.151428 -4.074768,14.696564 3.386993,19.6875c9.005859,6.023651 11.238068,8.611755 11.810852,13.693604c0.760925,6.750214 -0.987213,10.017456 -7.986786,14.927338c-9.234833,6.477844 -11.898499,12.414276 -8.500641,18.944946c2.109283,4.053955 5.513855,6.863281 11.715698,9.667358c8.114838,3.668976 13.704712,4.191223 22.919006,2.141235c11.027405,-2.4534 18.682343,-1.688416 26.237213,2.621857c12.352417,7.047424 18.89682,15.598328 23.127899,30.218628c1.467743,5.071899 1.892181,9.784058 1.865051,20.70813c-0.039642,15.96698 -1.292358,20.920044 -6.70285,26.502197c-12.25885,12.648041 -31.041412,-4.719482 -37.610626,-34.777008c-2.834076,-12.967682 -6.042053,-20.002716 -11.558289,-25.347473c-7.220642,-6.996124 -25.113678,-14.187744 -32.058289,-12.884949c-4.433289,0.831726 -11.06601,7.493835 -12.46106,12.516449c-2.350708,8.463257 -0.759277,13.711151 7.566711,24.95163c15.840179,21.384979 20.411804,30.160309 21.443054,41.160065c0.661377,7.054749 -0.559631,9.776001 -5.650421,12.592194c-5.16272,2.85611 -9.436096,3.566803 -14.021667,2.332031c-5.423584,-1.460449 -8.500214,-5.016968 -8.965729,-10.364227c-2.438507,-28.012543 -4.168518,-35.157959 -10.22525,-42.233917c-6.320679,-7.384216 -16.644348,-10.134308 -24.9758,-6.653229c-6.460815,2.699554 -7.59848,6.492371 -6.107239,20.360718c0.536957,4.993591 0.400085,7.832306 -0.454681,9.429413c-1.285522,2.401947 -6.661438,5.144531 -10.084137,5.144531c-5.492889,0 -13.709198,-12.643311 -18.209839,-28.021606c-2.745361,-9.380859 -5.407471,-12.586517 -10.452454,-12.586517c-5.723724,0 -8.474884,2.373932 -10.391479,8.966583c-2.633026,9.057526 -1.581146,17.463654 4.401917,35.177094c5.833954,17.271851 6.572266,19.051636 15.924194,38.385773c5.258728,10.871979 6.948608,15.46051 7.308136,19.843475c0.614685,7.495209 -1.143829,12.627899 -5.167175,15.081207c-6.092102,3.714752 -9.789795,2.073883 -14.622253,-6.488739c-4.69519,-8.319519 -6.103088,-14.819641 -7.184204,-33.168854c-1.536438,-26.076904 -6.807465,-48.921753 -15.757233,-68.292328c-4.364166,-9.445648 -5.996368,-11.322479 -9.846649,-11.322479c-8.030853,0 -14.173462,8.270111 -14.255463,19.192902c-0.044373,5.914032 0.372101,7.298065 4.194214,13.938843c2.333984,4.055115 4.935883,9.41217 5.782104,11.904633c1.554504,4.578857 1.914307,15.973511 0.651123,20.623535c-1.05835,3.895844 -6.435516,6.057526 -15.072678,6.059357c-9.206787,0.001923 -12.541138,-1.594818 -14.724335,-7.051147c-2.634766,-6.584839 -2.057861,-12.872894 2.400162,-26.160492c4.731323,-14.102264 5.396393,-23.808014 2.125046,-31.010895c-2.011429,-4.428558 -6.394836,-8.506897 -9.143341,-8.506897c-5.925156,0 -15.029602,19.96994 -21.764893,47.739563c-3.59053,14.804138 -4.813568,21.874756 -9.04039,52.265533c-2.81781,20.260315 -4.424469,25.967102 -9.139954,32.464905c-6.619354,9.121338 -21.936813,13.360718 -26.645416,7.374756l0,0z"/>
  </g>
 </g>
</svg>